<svg width="17" height="12" viewBox="0 0 17 12" fill="none" xmlns="http://www.w3.org/2000/svg">
                                        <path d="M8.24976 11.6506C6.05064 11.6506 3.85153 11.6513 1.65176 11.65C0.57874 11.6493 0.000808974 11.0669 0.000161795 9.98673C0.000161795 7.2058 -0.000485385 4.42422 0.000808974 1.64264C0.00145615 0.587739 0.587154 0.000747299 1.64141 0.000747299C6.072 0.000100119 10.5032 -0.000547061 14.9338 0.000747299C15.9855 0.000747299 16.5686 0.589034 16.5693 1.64782C16.5705 4.4294 16.5699 7.21033 16.5693 9.99191C16.5686 11.0701 15.9894 11.65 14.9125 11.65C12.6914 11.6513 10.4709 11.6506 8.24976 11.6506ZM1.7016 0.990285C1.79867 1.09578 1.86533 1.17473 1.93782 1.24722C3.65802 2.95836 5.37887 4.6695 7.10037 6.38C7.88928 7.16373 8.67949 7.16503 9.4671 6.38259C11.1886 4.67274 12.9088 2.96159 14.6297 1.2498C14.7028 1.17732 14.7701 1.09901 14.8711 0.990285C10.4651 0.990285 6.10695 0.990285 1.7016 0.990285ZM10.709 6.50037C10.0263 7.25628 9.3545 7.93905 8.27694 7.93776C7.19874 7.93582 6.53732 7.23492 5.88626 6.53726C4.51359 7.9397 3.1584 9.32467 1.86016 10.6514C6.1173 10.6514 10.4748 10.6514 14.7727 10.6514C13.4382 9.28842 12.0888 7.90993 10.709 6.50037ZM5.03069 5.86937C3.68844 4.50965 2.33324 3.13633 0.999407 1.78502C0.999407 4.47146 0.999407 7.19609 0.999407 9.97055C2.38761 8.55776 3.73827 7.18444 5.03069 5.86937ZM11.5387 5.80012C12.8661 7.15079 14.2193 8.52734 15.5752 9.90648C15.5752 7.18444 15.5752 4.46046 15.5752 1.71318C14.1993 3.10592 12.8473 4.47535 11.5387 5.80012Z" fill="#27AE60"></path>
                                    </svg>