<svg width="20" height="21" viewBox="0 0 20 21" fill="none" xmlns="http://www.w3.org/2000/svg">
                                        <path d="M6.23801 8.53196C7.50029 10.7178 9.16931 12.4839 11.3767 13.7235C11.5568 13.8249 11.6712 13.8023 11.8147 13.6555C12.2344 13.2261 12.653 12.7946 13.1007 12.3965C13.925 11.6639 14.9111 11.6596 15.704 12.4137C16.565 13.2315 17.4054 14.0709 18.22 14.9351C19.0097 15.7733 19.0183 16.7886 18.2566 17.6452C17.7377 18.2299 17.1896 18.7931 16.6168 19.325C15.6771 20.1967 14.5378 20.2593 13.3478 20.0381C11.6529 19.7231 10.1327 18.9776 8.69029 18.0767C5.22711 15.9114 2.60544 12.9888 0.899747 9.26775C0.458488 8.3054 0.132668 7.30313 0.0258596 6.23936C-0.0917375 5.07094 0.181218 4.04385 1.06158 3.21312C1.48881 2.8107 1.88691 2.37699 2.30552 1.96594C3.26571 1.02517 4.34459 1.01438 5.31126 1.95084C6.0697 2.68663 6.81952 3.43321 7.55207 4.19382C8.49393 5.17235 8.49609 6.16492 7.57149 7.16503C7.15505 7.616 6.71703 8.04323 6.23801 8.53196ZM1.16299 5.81644C1.12523 5.82507 1.08855 5.8337 1.05079 5.84341C1.26225 6.61696 1.4025 7.42072 1.69811 8.16083C3.24414 12.021 5.87335 14.9782 9.38508 17.1619C10.6948 17.9764 12.0747 18.6485 13.6153 18.9301C14.6672 19.1222 15.5756 18.9517 16.2801 18.0606C16.5693 17.6948 16.9383 17.3917 17.2652 17.055C17.8035 16.5005 17.8089 16.1251 17.2716 15.5813C16.538 14.839 15.799 14.1022 15.0578 13.3675C14.5723 12.8863 14.2044 12.8841 13.7124 13.3642C13.2453 13.8195 12.7922 14.2888 12.325 14.7441C11.9603 15.0991 11.6313 15.1627 11.1911 14.9135C10.5805 14.5672 9.95364 14.2316 9.39695 13.8087C7.68693 12.5098 6.22075 10.9853 5.25408 9.03795C4.91855 8.3615 4.98544 8.10149 5.52164 7.58579C5.94455 7.17905 6.36639 6.77016 6.77421 6.34832C7.23489 5.87254 7.23381 5.5068 6.76666 5.02994C6.01792 4.2661 5.26163 3.50981 4.49994 2.75784C4.02848 2.29176 3.62498 2.29284 3.14272 2.75784C2.71981 3.16565 2.31955 3.59612 1.89339 3.99854C1.36798 4.49266 1.10905 5.0882 1.16299 5.81644Z" fill="#27AE60"></path>
                                        <path d="M11.0349 0C11.953 0.295611 12.829 0.486571 13.6274 0.850151C17.0614 2.4102 19.1944 5.04373 19.969 8.75073C20.0683 9.22436 19.9259 9.51457 19.5741 9.58146C19.2008 9.65159 18.9549 9.44337 18.8535 8.95032C18.3043 6.26177 16.877 4.16445 14.5962 2.64971C13.5637 1.96463 12.4298 1.52013 11.215 1.27954C11.0877 1.25473 10.9529 1.23531 10.8407 1.17705C10.5796 1.04111 10.4372 0.799444 10.558 0.529726C10.6443 0.333371 10.8536 0.192039 11.0349 0Z" fill="#27AE60"></path>
                                        <path d="M16.3863 9.17931C16.3776 9.48679 16.2363 9.70472 15.9191 9.75542C15.6095 9.80505 15.3797 9.66804 15.2815 9.36703C15.193 9.09515 15.1574 8.80602 15.0614 8.53846C14.3839 6.64504 13.0795 5.43023 11.1203 4.9361C11.0318 4.91345 10.9423 4.89834 10.8538 4.87569C10.5053 4.78722 10.3144 4.53908 10.3597 4.23376C10.4082 3.90686 10.6823 3.7159 11.0458 3.75474C13.5294 4.02446 16.095 6.5803 16.3712 9.05739C16.3755 9.09623 16.3809 9.13507 16.3863 9.17931Z" fill="#27AE60"></path>
                                    </svg>